<svg xmlns="http://www.w3.org/2000/svg" viewBox="93.60 82.78 316.20 306.22">
  <path fill="#000000" fill-rule="evenodd" stroke="#000000" stroke-width="15" stroke-linejoin="round" d="M167.15,220.49 L167.15,182.39 A92.11,92.11 0 0 1 340.52,139.04 A22.52,22.52 0 0 1 300.79,160.23 A47.08,47.08 0 0 0 212.19,182.39 L212.19,220.49 Z M142.04,220.49 H361.36 A40.94,40.94 0 0 1 402.30,261.43 V340.56 A40.94,40.94 0 0 1 361.36,381.50 H142.04 A40.94,40.94 0 0 1 101.10,340.56 V261.43 A40.94,40.94 0 0 1 142.04,220.49 Z"/>
  <path fill="#FAD25A" fill-rule="evenodd" d="M167.15,220.49 L167.15,182.39 A92.11,92.11 0 0 1 340.52,139.04 A22.52,22.52 0 0 1 300.79,160.23 A47.08,47.08 0 0 0 212.19,182.39 L212.19,220.49 Z M142.04,220.49 H361.36 A40.94,40.94 0 0 1 402.30,261.43 V340.56 A40.94,40.94 0 0 1 361.36,381.50 H142.04 A40.94,40.94 0 0 1 101.10,340.56 V261.43 A40.94,40.94 0 0 1 142.04,220.49 Z"/>
</svg>